<?xml version="1.0" standalone="no"?>
<!DOCTYPE svg PUBLIC "-//W3C//DTD SVG 20010904//EN"
 "http://www.w3.org/TR/2001/REC-SVG-20010904/DTD/svg10.dtd">
<svg version="1.0" xmlns="http://www.w3.org/2000/svg"
 width="512.000000pt" height="512.000000pt" viewBox="0 0 512.000000 512.000000"
 preserveAspectRatio="xMidYMid meet">

<g transform="translate(0.000000,512.000000) scale(0.100000,-0.100000)"
fill="#000000" stroke="none">
<path d="M2389 4944 c-108 -19 -233 -67 -325 -123 -83 -51 -174 -126 -174
-142 0 -19 103 -109 114 -100 6 4 37 29 69 54 67 55 195 118 287 143 47 13
102 18 200 18 98 0 153 -5 200 -18 92 -25 220 -88 287 -143 32 -25 63 -50 69
-54 11 -9 114 81 114 100 0 16 -91 91 -174 142 -192 118 -442 164 -667 123z"/>
<path d="M2420 4624 c-81 -17 -211 -81 -270 -132 l-45 -39 59 -56 59 -56 34
30 c72 63 200 109 303 109 103 0 231 -46 303 -109 l34 -30 59 56 59 56 -45 39
c-61 53 -190 115 -275 133 -86 18 -189 18 -275 -1z"/>
<path d="M2461 4304 c-46 -16 -121 -62 -121 -73 1 -3 23 -30 49 -60 l49 -54
44 22 c24 11 59 21 78 21 19 0 54 -10 78 -21 l44 -22 49 54 c26 30 48 57 49
60 0 4 -17 18 -38 32 -85 56 -193 71 -281 41z"/>
<path d="M560 4147 c-49 -16 -133 -102 -148 -153 -28 -95 -8 -168 65 -241 28
-29 59 -53 67 -53 14 0 16 -21 16 -158 0 -233 35 -336 149 -445 190 -182 472
-182 662 0 112 106 149 214 149 430 0 92 4 143 10 143 37 0 122 -76 417 -372
246 -247 337 -345 352 -378 20 -44 21 -62 21 -1402 l0 -1358 80 0 80 0 -2
1383 -3 1382 -33 70 c-30 64 -61 98 -385 422 -324 324 -358 355 -422 385 l-70
33 -483 5 -484 5 -19 24 c-26 32 -24 77 6 106 l24 25 473 0 c682 0 612 26
1033 -392 326 -322 346 -338 445 -338 99 0 120 16 440 334 320 318 351 342
486 376 72 19 111 20 551 20 l474 0 24 -25 c30 -29 32 -74 6 -106 l-19 -24
-484 -5 -483 -5 -70 -33 c-64 -30 -98 -61 -422 -385 -324 -324 -355 -358 -385
-422 l-33 -70 -3 -1382 -2 -1383 80 0 80 0 0 1358 c0 1340 1 1358 21 1402 15
33 106 131 352 378 295 296 380 372 417 372 6 0 10 -51 10 -143 0 -216 37
-324 149 -430 190 -182 472 -182 662 0 114 109 149 212 149 445 0 137 2 158
16 158 8 0 39 24 67 53 73 73 93 146 65 241 -16 55 -99 138 -154 154 -30 9
-173 12 -518 12 -517 0 -564 -4 -691 -57 -110 -46 -168 -95 -460 -385 -269
-266 -293 -288 -325 -288 -33 0 -55 20 -300 266 -287 288 -342 336 -446 388
-141 70 -132 70 -704 72 -361 2 -525 -1 -550 -9z m798 -629 c-4 -153 -5 -166
-30 -214 -40 -75 -70 -107 -140 -145 -58 -31 -70 -34 -148 -34 -78 0 -90 3
-148 34 -69 37 -109 80 -144 151 -19 39 -23 65 -26 208 l-4 162 322 0 322 0
-4 -162z m3040 0 c-4 -153 -5 -166 -30 -214 -40 -75 -70 -107 -140 -145 -58
-31 -70 -34 -148 -34 -78 0 -90 3 -148 34 -69 37 -109 80 -144 151 -19 39 -23
65 -26 208 l-4 162 322 0 322 0 -4 -162z"/>
<path d="M3366 3034 c-59 -40 -113 -77 -118 -82 -14 -14 69 -135 88 -128 20 8
224 146 224 152 0 2 -19 33 -42 68 l-43 63 -109 -73z"/>
<path d="M312 3025 c-61 -41 -112 -78 -112 -81 0 -3 18 -32 41 -65 26 -39 46
-59 55 -55 20 8 224 146 224 152 0 10 -81 124 -88 124 -4 0 -58 -34 -120 -75z"/>
<path d="M1601 3041 c-23 -33 -41 -62 -41 -65 0 -6 204 -144 224 -152 9 -4 29
16 55 55 23 33 41 62 41 65 0 6 -204 144 -224 152 -9 4 -29 -16 -55 -55z"/>
<path d="M4658 3063 c-13 -21 -32 -50 -42 -65 l-17 -27 119 -80 120 -80 41 63
c23 34 41 65 41 69 0 7 -201 144 -224 153 -7 3 -23 -11 -38 -33z"/>
<path d="M580 2735 c-39 -58 -73 -112 -76 -119 -4 -9 16 -29 55 -55 33 -23 62
-41 65 -41 6 0 144 204 152 224 4 9 -16 29 -55 55 -33 23 -62 41 -65 41 -3 0
-37 -47 -76 -105z"/>
<path d="M1357 2799 c-37 -26 -56 -46 -53 -55 8 -20 146 -224 152 -224 3 0 32
18 65 41 39 26 59 46 55 55 -10 25 -146 224 -154 223 -4 0 -33 -18 -65 -40z"/>
<path d="M3617 2725 c-43 -63 -77 -117 -77 -120 0 -5 116 -85 124 -85 6 0 144
204 152 224 4 9 -16 29 -55 55 -33 23 -62 41 -64 41 -2 0 -38 -52 -80 -115z"/>
<path d="M4406 2805 c-27 -18 -53 -38 -58 -43 -6 -6 16 -49 62 -118 40 -60 76
-113 80 -118 12 -12 133 73 126 90 -10 25 -146 224 -154 223 -4 0 -29 -15 -56
-34z"/>
<path d="M960 2600 l0 -120 80 0 80 0 0 120 0 120 -80 0 -80 0 0 -120z"/>
<path d="M4000 2600 l0 -120 80 0 80 0 0 120 0 120 -80 0 -80 0 0 -120z"/>
<path d="M1202 1798 c-646 -928 -1095 -1575 -1099 -1585 -2 -6 23 -30 57 -53
52 -35 64 -40 75 -29 17 18 1256 1800 1262 1815 4 10 -81 78 -112 90 -8 4 -75
-83 -183 -238z"/>
<path d="M3680 1999 c-30 -22 -54 -45 -54 -52 1 -12 1234 -1789 1260 -1816 11
-13 21 -9 71 26 31 22 58 44 60 49 3 11 -1259 1826 -1273 1830 -5 2 -34 -15
-64 -37z"/>
</g>
</svg>
